<?xml version="1.0" encoding="UTF-8"?>
<svg width="115px" height="96px" viewBox="0 0 115 96" version="1.1" xmlns="http://www.w3.org/2000/svg" xmlns:xlink="http://www.w3.org/1999/xlink">
    <!-- Generator: Sketch 64 (93537) - https://sketch.com -->
    <title>Group 12</title>
    <desc>Created with Sketch.</desc>
    <defs>
        <polygon id="path-1" points="100.960478 39.9998545 100.960478 0.259391009 0.680139855 0.259391009 0.680139855 39.9998545"></polygon>
        <polygon id="path-3" points="0.463656522 0.529811321 28.5284391 0.529811321 28.5284391 23.4704208 0.463656522 23.4704208 0.463656522 0.529811321"></polygon>
    </defs>
    <g id="Page-1" stroke="none" stroke-width="1" fill="none" fill-rule="evenodd">
        <g id="Migrantes" transform="translate(-56.000000, -51.000000)">
            <g id="Group-12" transform="translate(56.000000, 51.000000)">
                <g id="Page-1" transform="translate(0.859998, 0.000000)">
                    <g id="Group-3" transform="translate(13.000000, 56.000000)">
                        <mask id="mask-2" fill="white">
                            <use xlink:href="#path-1"></use>
                        </mask>
                        <g id="Clip-2"></g>
                        <path d="M86.1400457,15.0369455 L89.5740457,13.1896727 L89.6860239,13.1293091 C91.5201254,12.1431273 92.4584007,10.8333091 92.4935312,9.51476364 C92.5279297,8.20203636 91.6635746,6.88058182 89.8916833,5.86458182 L82.9958717,1.91258182 C81.2613065,0.917672727 78.9719732,0.396945455 76.656292,0.355490909 L76.6599514,0.354763636 L76.5801761,0.353309091 C76.5282123,0.352581818 76.4762486,0.352581818 76.4250167,0.351854545 L66.625821,0.261672727 L66.6309442,0.2624 C64.9015022,0.229672727 63.1588862,0.463854545 61.6211978,0.967854545 L61.4426181,0.866036364 L31.2721616,0.592581818 L0.680139855,17.0522182 L40.2509152,39.7271273 L70.3686761,39.9998545 L100.960698,23.5402182 L86.1400457,15.0369455 Z" id="Fill-1" fill="#2D8ECD"></path>
                    </g>
                    <polygon id="Fill-4" fill="#846D48" points="0 19 53.0992175 50 73 38 19.9354233 8"></polygon>
                    <polygon id="Fill-5" fill="#584930" points="53 49.4004388 53 95 73 83.5995612 73 38"></polygon>
                    <polygon id="Fill-5" fill="#584930" points="53 49.4004388 53 95 73 83.5995612 73 38"></polygon>
                    <polygon id="Fill-6" fill="#AB9065" points="0 64.6103871 53 95 53 49.3896129 0 19"></polygon>
                    <g id="Group-20" transform="translate(20.000000, 0.000000)">
                        <g id="Group-13" transform="translate(2.217391, 0.000000)">
                            <mask id="mask-4" fill="white">
                                <use xlink:href="#path-3"></use>
                            </mask>
                            <g id="Clip-12"></g>
                            <path d="M22.4106565,7.02934528 L13.131613,1.70253396 C10.7952217,0.359609434 8.67317826,0.210232075 7.11361304,1.0476283 L7.11435217,1.04468491 L7.06113478,1.07485472 C7.02713478,1.09472264 6.99239565,1.11459057 6.95839565,1.13445849 L0.463656522,4.86300566 L4.56361304,5.26036415 C4.50078696,5.70628868 4.46752609,6.18091132 4.46752609,6.68276038 L4.46752609,19.6513642 L11.1160043,23.4704208 L11.1160043,11.4804962 C11.1160043,9.64970377 12.4124391,8.90502453 14.0045261,9.82042075 L18.5804826,19.1760057 L28.5284391,13.4577226 C26.9592652,10.7571566 24.7973087,8.40023208 22.4106565,7.02934528" id="Fill-11" fill="#846D48" mask="url(#mask-4)"></path>
                        </g>
                        <path d="M30.7460522,13.4579434 L20.7980957,19.1762264 L26.6409217,31.122 L26.6409217,38.7571698 L33.2930957,34.9388491 L33.2930957,22.1387547 L33.2930957,21.9702453 C33.2930957,19.2203774 32.3181826,16.1666038 30.7460522,13.4579434" id="Fill-14" fill="#584930"></path>
                        <polygon id="Fill-16" fill="#CE3E3D" points="6.681 27.2888887 13.3331739 23.4705679 13.3331739 15.8030208 6.66769565 12.0045679"></polygon>
                        <path d="M17.9758739,10.8472981 L8.69683043,5.52122264 C3.91835217,2.77429811 0.0327434783,5.0090717 0.0327434783,10.5014491 L0.0327434783,23.469317 L6.68122174,27.2891094 L6.68122174,15.2991849 C6.68122174,13.4683925 7.97765652,12.7237132 9.56974348,13.6391094 L17.1000043,17.9695811 C18.6935696,18.8849774 19.9892652,21.1190151 19.9892652,22.9498075 L19.9892652,34.9397321 L26.6414391,38.757317 L26.6414391,25.7894491 C26.6414391,20.2963358 22.7543522,13.5934868 17.9758739,10.8472981" id="Fill-18" fill="#AB9065"></path>
                    </g>
                </g>
                <g id="Group" transform="translate(4.859998, 29.000000)" fill="#E5E3C3" fill-rule="nonzero">
                    <path d="M3.47130697,2.30187829 C2.13790868,1.76169763 1.06808913,2.97867236 1.06808913,4.98269974 C1.06808913,6.98672713 2.15341332,9.07678456 3.47130697,9.61068405 C4.78920062,10.1445835 5.8745248,8.93388998 5.8745248,6.9298626 C5.8745248,4.92583521 4.80470525,2.84205895 3.47130697,2.30187829 Z M6.8203073,7.26586041 C6.72727952,6.94525188 6.69627025,6.60261444 6.75828878,6.3448176 C6.85131657,5.88739198 6.74278415,5.32473434 6.46370079,4.92875176 C6.29314984,4.67104454 6.18461742,4.34415484 6.15360816,4.02509419 C6.10709427,3.51113803 5.84351554,3.00355266 5.51791828,2.7773409 C5.31635808,2.6485321 5.1303025,2.38454371 5.02177009,2.0812308 C4.83571451,1.58147448 4.49461262,1.25467439 4.16901537,1.26423057 C3.96745516,1.27688252 3.75039033,1.14179255 3.57983938,0.907662124 C3.28525139,0.528975164 2.92864487,0.455238621 2.68057078,0.684814992 C2.52552446,0.834194422 2.32396426,0.846846377 2.10689942,0.735333197 C1.78130217,0.579851824 1.47120954,0.737149927 1.33166786,1.12857846 C1.25414471,1.38009412 1.09909839,1.55305034 0.897538189,1.58927909 C0.587445566,1.65227002 0.38588536,2.04215066 0.401389991,2.54354448 C0.416894622,2.85632395 0.339371467,3.13141641 0.199829786,3.3106538 C-0.0172350508,3.5999461 -0.0637489444,4.12336882 0.0912973675,4.63413959 C0.184325155,4.95474812 0.215334417,5.29738556 0.153315892,5.5551824 C0.0602881051,6.01260802 0.168820523,6.57526566 0.447903885,6.97124824 C0.618454828,7.22895546 0.726987246,7.55584516 0.757996509,7.87490581 C0.804510402,8.38886197 1.06808913,8.89644734 1.39368639,9.1226591 C1.59524659,9.2514679 1.78130217,9.51545629 1.88983459,9.8187692 C2.07589016,10.3185255 2.41699205,10.6453256 2.7425893,10.6357694 C2.94414951,10.6231175 3.16121434,10.7582075 3.33176529,10.9923379 C3.62635328,11.3710248 3.9829598,11.4447614 4.23103389,11.215185 C4.38608021,11.0658056 4.58764041,11.0531536 4.80470525,11.1646668 C5.1303025,11.3201482 5.44039513,11.1628501 5.57993681,10.7714215 C5.65745996,10.5199059 5.81250628,10.3469497 6.01406648,10.3107209 C6.3241591,10.24773 6.52571931,9.85784934 6.51021468,9.35645552 C6.49471005,9.04367605 6.5722332,8.76858359 6.71177488,8.5893462 C6.92883972,8.3000539 6.97535361,7.77663118 6.8203073,7.26586041 Z M3.47130697,10.1529503 C1.95185311,9.53739558 0.711482615,7.17233531 0.711482615,4.83823282 C0.711482615,2.52770713 1.93634848,1.13777618 3.47130697,1.75961206 C4.99076082,2.37516676 6.23113132,4.74022703 6.23113132,7.07432952 C6.23113132,9.38485521 4.99076082,10.768505 3.47130697,10.1529503 Z" id="Shape"></path>
                </g>
                <g id="Group-Copy-10" transform="translate(29.859998, 64.000000)" fill="#E5E3C3" fill-rule="nonzero">
                    <path d="M3.47130697,2.30187829 C2.13790868,1.76169763 1.06808913,2.97867236 1.06808913,4.98269974 C1.06808913,6.98672713 2.15341332,9.07678456 3.47130697,9.61068405 C4.78920062,10.1445835 5.8745248,8.93388998 5.8745248,6.9298626 C5.8745248,4.92583521 4.80470525,2.84205895 3.47130697,2.30187829 Z M6.8203073,7.26586041 C6.72727952,6.94525188 6.69627025,6.60261444 6.75828878,6.3448176 C6.85131657,5.88739198 6.74278415,5.32473434 6.46370079,4.92875176 C6.29314984,4.67104454 6.18461742,4.34415484 6.15360816,4.02509419 C6.10709427,3.51113803 5.84351554,3.00355266 5.51791828,2.7773409 C5.31635808,2.6485321 5.1303025,2.38454371 5.02177009,2.0812308 C4.83571451,1.58147448 4.49461262,1.25467439 4.16901537,1.26423057 C3.96745516,1.27688252 3.75039033,1.14179255 3.57983938,0.907662124 C3.28525139,0.528975164 2.92864487,0.455238621 2.68057078,0.684814992 C2.52552446,0.834194422 2.32396426,0.846846377 2.10689942,0.735333197 C1.78130217,0.579851824 1.47120954,0.737149927 1.33166786,1.12857846 C1.25414471,1.38009412 1.09909839,1.55305034 0.897538189,1.58927909 C0.587445566,1.65227002 0.38588536,2.04215066 0.401389991,2.54354448 C0.416894622,2.85632395 0.339371467,3.13141641 0.199829786,3.3106538 C-0.0172350508,3.5999461 -0.0637489444,4.12336882 0.0912973675,4.63413959 C0.184325155,4.95474812 0.215334417,5.29738556 0.153315892,5.5551824 C0.0602881051,6.01260802 0.168820523,6.57526566 0.447903885,6.97124824 C0.618454828,7.22895546 0.726987246,7.55584516 0.757996509,7.87490581 C0.804510402,8.38886197 1.06808913,8.89644734 1.39368639,9.1226591 C1.59524659,9.2514679 1.78130217,9.51545629 1.88983459,9.8187692 C2.07589016,10.3185255 2.41699205,10.6453256 2.7425893,10.6357694 C2.94414951,10.6231175 3.16121434,10.7582075 3.33176529,10.9923379 C3.62635328,11.3710248 3.9829598,11.4447614 4.23103389,11.215185 C4.38608021,11.0658056 4.58764041,11.0531536 4.80470525,11.1646668 C5.1303025,11.3201482 5.44039513,11.1628501 5.57993681,10.7714215 C5.65745996,10.5199059 5.81250628,10.3469497 6.01406648,10.3107209 C6.3241591,10.24773 6.52571931,9.85784934 6.51021468,9.35645552 C6.49471005,9.04367605 6.5722332,8.76858359 6.71177488,8.5893462 C6.92883972,8.3000539 6.97535361,7.77663118 6.8203073,7.26586041 Z M3.47130697,10.1529503 C1.95185311,9.53739558 0.711482615,7.17233531 0.711482615,4.83823282 C0.711482615,2.52770713 1.93634848,1.13777618 3.47130697,1.75961206 C4.99076082,2.37516676 6.23113132,4.74022703 6.23113132,7.07432952 C6.23113132,9.38485521 4.99076082,10.768505 3.47130697,10.1529503 Z" id="Shape"></path>
                </g>
                <path d="M38.9746267,48.0561356 C38.8946592,47.9785022 38.7922185,47.981802 38.7458429,48.0634857 L38.2419435,48.9510312 C38.1955679,49.032715 38.2227932,49.1618961 38.3027608,49.2395296 C38.5443865,49.4741029 38.6253442,49.8581956 38.4852127,50.1050248 C38.3450585,50.351878 38.0404871,50.3616484 37.7988613,50.1270751 C37.7188938,50.0494416 37.6164531,50.0527414 37.5700776,50.1344252 L37.1501614,50.8740464 C37.1037858,50.9557302 37.1310111,51.0849114 37.2109787,51.1625448 C37.4526044,51.3971181 37.5335621,51.7812108 37.3934305,52.02804 C37.2532764,52.2748932 36.948705,52.2846636 36.7070792,52.0500903 C36.6271117,51.9724568 36.524671,51.9757567 36.4782954,52.0574404 L36.0583792,52.7970617 C36.0120037,52.8787454 36.039229,53.0079266 36.1191965,53.0855601 C36.3608223,53.3201333 36.44178,53.704226 36.3016484,53.9510552 C36.1614943,54.1979084 35.8569229,54.2076788 35.6152971,53.9731055 C35.5353296,53.8954721 35.4328889,53.8987719 35.3865133,53.9804556 L34.8826139,54.8680011 C34.8362383,54.9496849 34.8634636,55.078866 34.9434312,55.1564995 L35.8122344,55.9999444 C35.8922019,56.0775779 35.9946339,56.0742696 36.0410182,55.9925943 C36.1811526,55.7457679 36.4857379,55.7359651 36.7273695,55.970544 C36.969001,56.2051229 37.0499558,56.5892128 36.9098214,56.8360392 C36.8634545,56.9177314 36.8906711,57.0469041 36.9706386,57.1245376 L37.6946413,57.8274083 C37.7746089,57.9050418 37.8770409,57.9017336 37.9234251,57.8200582 C38.0635595,57.5732318 38.3681449,57.5634291 38.6097764,57.7980079 C38.851408,58.0325868 38.9323627,58.4166767 38.7922283,58.6635031 C38.7458614,58.7451953 38.773078,58.874368 38.8530456,58.9520015 L39.5770482,59.6548723 C39.6570158,59.7325057 39.7594478,59.7291975 39.805832,59.6475222 C39.9459665,59.4006958 40.2505518,59.390893 40.4921833,59.6254719 C40.7338149,59.8600508 40.8147697,60.2441407 40.6746352,60.4909671 C40.6282684,60.5726593 40.655485,60.701832 40.7354525,60.7794655 L41.6042557,61.6229103 C41.6842233,61.7005438 41.7866639,61.697244 41.8330395,61.6155602 L42.3369389,60.7280148 C42.3833145,60.646331 42.3560892,60.5171498 42.2761216,60.4395164 C42.0344959,60.2049431 41.9535214,59.82088 42.0936698,59.5740212 C42.2338071,59.3271976 42.5383953,59.3173976 42.7800211,59.5519709 C42.8599978,59.6296044 42.9624293,59.6263046 43.0088048,59.5446208 L43.428721,58.8049995 C43.4750966,58.7233158 43.4478713,58.5941346 43.3679037,58.5165012 C43.126278,58.2819279 43.0453035,57.8978648 43.1854519,57.651006 C43.3255892,57.4041824 43.6301774,57.3943824 43.8718032,57.6289557 C43.9517707,57.7065891 44.0542114,57.7032893 44.100587,57.6216056 L44.5205032,56.8819843 C44.5668787,56.8003006 44.5396534,56.6711194 44.4596859,56.5934859 C44.2180601,56.3589127 44.1370857,55.9748495 44.277234,55.7279908 C44.4173713,55.4811672 44.7219596,55.4713672 44.9635853,55.7059405 C45.0435528,55.7835739 45.1459935,55.7802741 45.1923691,55.6985904 L45.6962685,54.8110449 C45.7426441,54.7293611 45.7154188,54.60018 45.6354512,54.5225465 L44.766648,53.6791016 C44.6866805,53.6014681 44.5842485,53.6047763 44.5378643,53.6864517 C44.397713,53.9333077 44.0931445,53.9430809 43.8515129,53.708502 C43.6098814,53.4739231 43.5289098,53.0898628 43.6690611,52.8430068 C43.7154279,52.7613146 43.6882113,52.6321419 43.6082438,52.5545084 L42.8842411,51.8516377 C42.8042736,51.7740042 42.7018416,51.7773124 42.6554573,51.8589878 C42.5153061,52.1058437 42.2107375,52.1156169 41.969106,51.8810381 C41.7274745,51.6464592 41.6465029,51.2623988 41.7866541,51.0155429 C41.833021,50.9338507 41.8058044,50.8046779 41.7258368,50.7270445 L41.0018342,50.0241737 C40.9218666,49.9465402 40.8194346,49.9498485 40.7730504,50.0315238 C40.6328992,50.2783798 40.3283306,50.288153 40.0866991,50.0535741 C39.8450675,49.8189952 39.764096,49.4349349 39.9042472,49.1880789 C39.950614,49.1063867 39.9233974,48.977214 39.8434299,48.8995805 L38.9746267,48.0561356 Z M39.461165,50.3641228 L43.805181,54.5813473 C43.8851486,54.6589807 43.9123739,54.7881619 43.8659983,54.8698457 L41.3465011,59.3075731 C41.3001256,59.3892569 41.1976849,59.3925567 41.1177174,59.3149232 L36.7737014,55.0976987 C36.6937338,55.0200652 36.6665085,54.8908841 36.7128841,54.8092003 L39.2323813,50.3714729 C39.2787568,50.2897891 39.3811975,50.2864893 39.461165,50.3641228 Z M39.5646996,50.9235478 L43.3657136,54.6136192 C43.4356852,54.6815485 43.4595073,54.794582 43.4189287,54.8660553 L41.2143686,58.7490668 C41.17379,58.8205401 41.0841544,58.8234275 41.0141828,58.7554982 L37.2131688,55.0654268 C37.1431972,54.9974975 37.1193751,54.884464 37.1599537,54.8129907 L39.3645138,50.9299792 C39.4050924,50.8585059 39.494728,50.8556185 39.5646996,50.9235478 Z" id="Shape" fill="#E5E3C3" fill-rule="nonzero"></path>
                <path d="M9.95565486,47.0000816 C9.89486342,46.9972705 9.85252862,47.0674388 9.86110058,47.1567766 L9.9542403,48.1274876 C9.96281226,48.2168254 10.0190497,48.2915518 10.0798412,48.294363 C10.2635254,48.3028568 10.4307394,48.5250342 10.4566437,48.794989 C10.4825468,49.064976 10.3566651,49.2735679 10.1729809,49.265074 C10.1121894,49.2622629 10.0698546,49.3324312 10.0784266,49.4217689 L10.156043,50.2306948 C10.164615,50.3200326 10.2208524,50.394759 10.2816439,50.3975702 C10.4653281,50.406064 10.6325421,50.6282414 10.6584464,50.8981962 C10.6843495,51.1681832 10.5584678,51.3767751 10.3747836,51.3682812 C10.3139922,51.3654701 10.2716574,51.4356384 10.2802293,51.5249761 L10.3578457,52.333902 C10.3664177,52.4232398 10.4226552,52.4979662 10.4834466,52.5007773 C10.6671308,52.5092712 10.8343448,52.7314486 10.8602492,53.0014034 C10.8861522,53.2713904 10.7602706,53.4799823 10.5765863,53.4714884 C10.5157949,53.4686773 10.4734601,53.5388456 10.482032,53.6281833 L10.5751718,54.5988944 C10.5837437,54.6882321 10.6399812,54.7629586 10.7007726,54.7657697 L11.361238,54.7963108 C11.4220295,54.799122 11.4643577,54.7289533 11.4557923,54.6396159 C11.4298902,54.3696611 11.5557665,54.1610368 11.7394552,54.1695309 C11.9231438,54.178025 12.0903556,54.4002023 12.1162577,54.670157 C12.1248363,54.7594951 12.1810672,54.8342213 12.2418586,54.8370324 L12.7922464,54.8624833 C12.8530379,54.8652944 12.8953661,54.7951258 12.8868007,54.7057883 C12.8608986,54.4358336 12.9867749,54.2272093 13.1704636,54.2357034 C13.3541522,54.2441975 13.521364,54.4663747 13.5472661,54.7363295 C13.5558447,54.8256675 13.6120756,54.9003937 13.672867,54.9032048 L14.2232548,54.9286558 C14.2840463,54.9314669 14.3263745,54.8612982 14.3178091,54.7719608 C14.291907,54.502006 14.4177833,54.2933817 14.601472,54.3018758 C14.7851606,54.3103699 14.9523724,54.5325472 14.9782746,54.8025019 C14.9868531,54.89184 15.043084,54.9665662 15.1038754,54.9693773 L15.7643408,54.9999184 C15.8251323,55.0027295 15.8674671,54.9325612 15.8588951,54.8432234 L15.7657554,53.8725124 C15.7571834,53.7831746 15.700946,53.7084482 15.6401545,53.705637 C15.4564703,53.6971432 15.2892594,53.4749982 15.263352,53.205011 C15.237452,52.9350563 15.3633306,52.7264321 15.5470148,52.734926 C15.6078063,52.7377371 15.6501411,52.6675688 15.6415691,52.5782311 L15.5639527,51.7693052 C15.5553807,51.6799674 15.4991433,51.605241 15.4383518,51.6024298 C15.2546676,51.593936 15.0874567,51.371791 15.0615492,51.1018038 C15.0356493,50.8318491 15.1615279,50.6232249 15.3452121,50.6317188 C15.4060035,50.6345299 15.4483383,50.5643616 15.4397664,50.4750239 L15.3621499,49.666098 C15.353578,49.5767602 15.2973405,49.5020338 15.2365491,49.4992227 C15.0528648,49.4907288 14.885654,49.2685838 14.8597465,48.9985966 C14.8338466,48.7286419 14.9597251,48.5200177 15.1434094,48.5285116 C15.2042008,48.5313227 15.2465356,48.4611544 15.2379637,48.3718167 L15.1448239,47.4011056 C15.136252,47.3117679 15.0800145,47.2370414 15.0192231,47.2342303 L14.3587577,47.2036892 C14.2979662,47.200878 14.255638,47.2710467 14.2642034,47.3603841 C14.2901086,47.6303712 14.1642292,47.8389632 13.9805405,47.8304691 C13.7968519,47.821975 13.6296432,47.5998301 13.603738,47.329843 C13.5951594,47.2405049 13.5389285,47.1657787 13.4781371,47.1629676 L12.9277493,47.1375167 C12.8669578,47.1347056 12.8246296,47.2048742 12.833195,47.2942117 C12.8591002,47.5641988 12.7332208,47.7727907 12.5495321,47.7642966 C12.3658435,47.7558025 12.1986348,47.5336576 12.1727295,47.2636705 C12.164151,47.1743325 12.1079201,47.0996063 12.0471287,47.0967952 L11.4967408,47.0713442 C11.4359494,47.0685331 11.3936212,47.1387018 11.4021866,47.2280392 C11.4280918,47.4980263 11.3022124,47.7066183 11.1185237,47.6981242 C10.9348351,47.6896301 10.7676264,47.4674852 10.7417211,47.1974981 C10.7331426,47.10816 10.6769117,47.0334338 10.6161203,47.0306227 L9.95565486,47.0000816 Z M10.9604617,48.3350845 L14.2627888,48.4877901 C14.3235802,48.4906012 14.3798177,48.5653277 14.3883897,48.6546655 L14.8540883,53.5082206 C14.8626602,53.5975583 14.8203254,53.6677266 14.759534,53.6649155 L11.4572069,53.5122099 C11.3964154,53.5093988 11.340178,53.4346723 11.331606,53.3453345 L10.8659074,48.4917794 C10.8573355,48.4024417 10.8996703,48.3322734 10.9604617,48.3350845 Z M11.1979037,48.6681989 L14.0874399,48.8018164 C14.1406324,48.8042761 14.1898402,48.8696617 14.1973407,48.9478323 L14.604827,53.194693 C14.6123274,53.2728635 14.5752845,53.3342608 14.522092,53.3318011 L11.6325557,53.1981836 C11.5793632,53.1957239 11.5301555,53.1303383 11.522655,53.0521677 L11.1151687,48.805307 C11.1076683,48.7271365 11.1447112,48.6657392 11.1979037,48.6681989 Z" id="Shape-Copy-2" fill="#E5E3C3" fill-rule="nonzero"></path>
                <path d="M59.9439424,54.3966606 C59.8939988,54.4443882 59.8793073,54.5330494 59.9111221,54.5946649 L60.2568101,55.264157 C60.2886249,55.3257725 60.3549161,55.3370442 60.4048598,55.2893166 C60.5557668,55.1451053 60.752871,55.1786115 60.8490087,55.3647955 C60.9451542,55.5510053 60.9014548,55.8145973 60.7505477,55.9588086 C60.7006041,56.0065362 60.6859126,56.0951974 60.7177274,56.156813 L61.0058008,56.714723 C61.0376156,56.7763386 61.1039068,56.7876102 61.1538504,56.7398826 C61.3047574,56.5956713 61.5018617,56.6291775 61.5979993,56.8153615 C61.6941449,57.0015713 61.6504454,57.2651633 61.4995384,57.4093746 C61.4495948,57.4571022 61.4349033,57.5457634 61.4667181,57.607379 L61.7547914,58.165289 C61.7866062,58.2269046 61.8528974,58.2381763 61.902841,58.1904486 C62.0537481,58.0462374 62.2508523,58.0797435 62.34699,58.2659275 C62.4431355,58.4521373 62.3994361,58.7157294 62.248529,58.8599406 C62.1985854,58.9076683 62.1838939,58.9963294 62.2157087,59.057945 L62.5613967,59.727437 C62.5932115,59.7890526 62.6595027,59.8003243 62.7094463,59.7525967 L63.2520562,59.2340624 C63.3019998,59.1863348 63.3166859,59.0976788 63.2848765,59.0360581 C63.1887407,58.8498723 63.2324268,58.5862597 63.3833375,58.4420449 C63.5342481,58.2978302 63.7313506,58.3313381 63.8274864,58.5175238 C63.8593066,58.5791342 63.9255924,58.5904111 63.975536,58.5426835 L64.4277109,58.1105716 C64.4776546,58.062844 64.4923406,57.974188 64.4605312,57.9125672 C64.3643954,57.7263815 64.4080815,57.4627688 64.5589922,57.3185541 C64.7099028,57.1743394 64.9070053,57.2078473 65.0031411,57.394033 C65.0349614,57.4556434 65.1012471,57.4669202 65.1511908,57.4191926 L65.6033657,56.9870808 C65.6533093,56.9393531 65.6679954,56.8506972 65.636186,56.7890764 C65.5400501,56.6028907 65.5837363,56.339278 65.7346469,56.1950633 C65.8855576,56.0508485 66.08266,56.0843564 66.1787958,56.2705422 C66.2106161,56.3321525 66.2769019,56.3434294 66.3268455,56.2957018 L66.8694554,55.7771676 C66.919399,55.7294399 66.9340905,55.6407788 66.9022757,55.5791632 L66.5565877,54.9096712 C66.5247729,54.8480556 66.4584817,54.8367839 66.408538,54.8845115 C66.257631,55.0287228 66.0605383,54.995239 65.9643891,54.8090326 C65.8682551,54.6228452 65.911943,54.3592308 66.06285,54.2150195 C66.1127937,54.1672919 66.1274852,54.0786307 66.0956704,54.0170152 L65.807597,53.4591051 C65.7757822,53.3974896 65.709491,53.3862179 65.6595474,53.4339455 C65.5086404,53.5781568 65.3115476,53.5446729 65.2153985,53.3584666 C65.1192644,53.1722792 65.1629524,52.9086648 65.3138594,52.7644535 C65.363803,52.7167259 65.3784945,52.6280647 65.3466797,52.5664491 L65.0586064,52.0085391 C65.0267916,51.9469235 64.9605004,51.9356519 64.9105568,51.9833795 C64.7596497,52.1275908 64.562557,52.0941069 64.4664078,51.9079006 C64.3702738,51.7217131 64.4139617,51.4580988 64.5648688,51.3138875 C64.6148124,51.2661599 64.6295039,51.1774987 64.5976891,51.1158831 L64.2520011,50.4463911 C64.2201863,50.3847755 64.1538951,50.3735038 64.1039515,50.4212315 L63.5613416,50.9397657 C63.511398,50.9874933 63.4967119,51.0761493 63.5285213,51.1377701 C63.6246686,51.3239781 63.580971,51.5875684 63.4300603,51.7317832 C63.2791497,51.8759979 63.0820587,51.8425123 62.9859114,51.6563043 C62.9540912,51.5946939 62.8878054,51.5834171 62.8378618,51.6311447 L62.3856869,52.0632565 C62.3357432,52.1109841 62.3210572,52.1996401 62.3528665,52.2612609 C62.4490139,52.4474689 62.4053163,52.7110593 62.2544056,52.855274 C62.1034949,52.9994888 61.906404,52.9660032 61.8102567,52.7797951 C61.7784364,52.7181847 61.7121507,52.7069079 61.662207,52.7546355 L61.2100321,53.1867474 C61.1600885,53.234475 61.1454024,53.323131 61.1772118,53.3847517 C61.2733592,53.5709598 61.2296615,53.8345501 61.0787509,53.9787649 C60.9278402,54.1229796 60.7307493,54.089494 60.634602,53.903286 C60.6027817,53.8416756 60.5364959,53.8303987 60.4865523,53.8781263 L59.9439424,54.3966606 Z M61.1283396,54.5979376 L63.8413889,52.0052665 C63.8913326,51.9575388 63.9576238,51.9688105 63.9894386,52.0304261 L65.7178785,55.3778861 C65.7496933,55.4395017 65.7350018,55.5281629 65.6850582,55.5758905 L62.9720089,58.1685617 C62.9220652,58.2162893 62.855774,58.2050176 62.8239592,58.143402 L61.0955193,54.795942 C61.0637045,54.7343264 61.078396,54.6456652 61.1283396,54.5979376 Z M61.4131345,54.6590597 L63.7870527,52.3904724 C63.8307534,52.3487107 63.8887582,52.3585734 63.9165961,52.4124871 L65.4289811,55.3415146 C65.456819,55.3954283 65.443964,55.4730068 65.4002633,55.5147685 L63.0263451,57.7833557 C62.9826444,57.8251174 62.9246396,57.8152547 62.8968017,57.761341 L61.3844167,54.8323135 C61.3565788,54.7783999 61.3694338,54.7008213 61.4131345,54.6590597 Z" id="Shape-Copy-3" fill="#E5E3C3" fill-rule="nonzero"></path>
                <path d="M53.2725414,65.2854284 C51.5205083,63.9134391 49.505843,64.6030934 48.7775962,66.8241659 C48.0616155,69.0078279 48.8560019,71.863039 50.5478976,73.2625085 C50.5759015,73.2888642 50.6032203,73.3123649 50.633014,73.3356959 C50.6628077,73.3590269 50.6912264,73.3791733 50.7215398,73.3984849 C52.4523468,74.6792795 54.4119588,73.9806808 55.1279395,71.7970188 C55.8561863,69.5759463 55.0245746,66.6574178 53.2725414,65.2854284 Z M53.0216694,65.5434624 L52.4803572,67.1944051 L51.512922,66.436822 C51.645575,66.2463926 51.7787695,66.0766745 51.9144711,65.9410948 C52.3224086,65.53349 52.7114856,65.405719 53.0216694,65.5434624 Z M53.2862671,65.7506646 C53.5415814,66.0557538 53.7050106,66.6161837 53.7335799,67.3656099 C53.7430895,67.6149022 53.7333033,67.8812594 53.7123899,68.1591903 L52.7449548,67.4016073 L53.2862671,65.7506646 Z M52.3771368,65.1638879 C52.1571328,65.246541 51.9360682,65.3934832 51.7227962,65.6065673 C51.5557114,65.7735116 51.3898116,65.9801984 51.2317871,66.2166697 L50.1733965,65.3878609 C50.809098,64.9376781 51.594234,64.8468455 52.3771368,65.1638879 Z M53.8654985,66.3294003 C54.4939331,67.1175537 54.9108641,68.1497059 55.0519155,69.2081515 L53.9935249,68.3793427 C54.0234577,68.0425648 54.033192,67.7135872 54.0214882,67.4066365 C54.0065447,67.0148404 53.9524806,66.6524494 53.8654985,66.3294003 Z M51.0556567,66.5002988 C50.8218263,66.8994612 50.6086445,67.3731469 50.4243068,67.9029018 L49.1013187,66.8668909 C49.2985579,66.3391661 49.5763236,65.9158443 49.9104451,65.6035017 L51.0556567,66.5002988 Z M51.3326574,66.7172136 L52.3703763,67.5298347 L51.8754594,69.0392764 L50.6889044,68.110104 C50.8756996,67.5755919 51.0973087,67.1065031 51.3326574,66.7172136 Z M52.6349739,67.7370369 L53.6726928,68.549658 C53.6087504,69.0731732 53.4950972,69.6268004 53.3266121,70.175651 L52.1400571,69.2464786 L52.6349739,67.7370369 Z M53.9496934,68.7665729 L55.0949051,69.6633699 C55.1295267,70.2644694 55.0729118,70.8609709 54.9141979,71.4188642 L53.5912098,70.3828532 C53.7585602,69.8397958 53.8797017,69.2940348 53.9496934,68.7665729 Z M48.9913377,67.2023204 L50.3143259,68.2383315 C50.1466882,68.7818595 50.025511,69.3277295 49.9558455,69.8546017 L48.8064995,68.9545672 C48.7727783,68.3545754 48.8323431,67.7589401 48.9913377,67.2023204 Z M50.5789235,68.4455337 L51.7654785,69.374706 L51.270565,70.8841377 L50.2328462,70.0715166 C50.2964379,69.5486143 50.4102516,68.9949546 50.5789235,68.4455337 Z M52.0300762,69.5819082 L53.2166312,70.5110806 C53.0297681,71.0462563 52.8081178,71.5154708 52.5728815,71.903961 L51.5351627,71.0913399 L52.0300762,69.5819082 Z M53.4812289,70.7182828 L54.804217,71.7542939 C54.6078083,72.2816151 54.3322393,72.7081009 53.9992282,73.0209104 L52.8498822,72.1208758 C53.0835981,71.7224689 53.2967098,71.2485913 53.4812289,70.7182828 Z M48.8536235,69.4130231 L49.912014,70.2418319 C49.8823232,70.5778719 49.8740654,70.9023463 49.8857692,71.209297 C49.9008383,71.6045639 49.9544039,71.9740787 50.0424591,72.3002445 C49.4110403,71.5102391 48.9942532,70.4752907 48.8536235,69.4130231 Z M50.193149,70.4619843 L51.1605841,71.2195673 L50.6175534,72.8757511 C50.3625613,72.5696285 50.202249,71.9997937 50.1736775,71.2503236 C50.1641679,71.0010313 50.1724391,70.7392947 50.193149,70.4619843 Z M51.4251818,71.4267695 L52.3926169,72.1843526 C52.2601674,72.3741615 52.1284879,72.539259 51.9927862,72.6748387 C51.5848246,73.0824667 51.1926835,73.219684 50.8821511,73.0829533 L51.4251818,71.4267695 Z M52.6737519,72.4045049 L53.7321424,73.2333137 C53.0946962,73.6862825 52.308186,73.7789478 51.5225521,73.4592818 C51.744817,73.3761228 51.9693039,73.2243464 52.1844612,73.0093662 C52.351546,72.842422 52.5159693,72.6402383 52.6737519,72.4045049 Z M47.4921071,72.7731575 C47.4190411,72.7159407 47.3351892,72.7446424 47.304818,72.8372713 C47.2744467,72.9299002 47.3090602,73.0513703 47.3821262,73.1085871 L52.674079,77.2526312 C52.747145,77.309848 52.830997,77.2811464 52.8613682,77.1885175 C52.8917395,77.0958886 52.8571259,76.9744184 52.7840599,76.9172016 L47.4921071,72.7731575 Z M46.9422026,74.4503056 C46.8691366,74.3930888 46.7852847,74.4217906 46.7549135,74.5144195 C46.7245422,74.6070483 46.7591557,74.7285184 46.8322217,74.7857353 L52.1241744,78.9297793 C52.1972404,78.9869962 52.2810925,78.9582945 52.3114637,78.8656656 C52.3418349,78.7730367 52.3072213,78.6515665 52.2341554,78.5943497 L46.9422026,74.4503056 Z M49.2039505,61.4670487 C49.3553228,61.0053801 49.7762179,60.8612974 50.1403969,61.1464801 L57.2845331,66.7409396 C57.6487121,67.0261224 57.8224472,67.6358506 57.6710749,68.0975192 L53.3818176,81.1792814 C53.2304454,81.64095 52.8095502,81.7850328 52.4453712,81.49985 L45.301235,75.9053905 C44.937056,75.6202078 44.7633209,75.0104795 44.9146932,74.5488109 L49.2039505,61.4670487 Z" id="Shape" fill="#E5E3C3" fill-rule="nonzero"></path>
                <polygon id="Fill-5" fill-opacity="0.5" fill="#584930" points="53.8599978 49.4004388 53.8599978 95 73.8599978 83.5995612 73.8599978 38"></polygon>
                <path d="M19.0542221,53.2722013 C17.3412586,52.9534595 16.0434546,54.6016918 16.1586873,56.9496296 C16.271979,59.2580201 17.7104602,61.3869331 19.3867277,61.7610006 C19.4154188,61.7700286 19.4427531,61.7768716 19.4718824,61.7822919 C19.5010117,61.7877121 19.528172,61.7910093 19.5564977,61.7925908 C21.2266081,62.0412047 22.4807121,60.4133179 22.3674204,58.1049274 C22.2521877,55.7569895 20.7671857,53.5909431 19.0542221,53.2722013 Z M18.9436357,53.6304239 L19.0292891,55.3756667 L18.0834274,55.1996643 C18.1259017,54.9622722 18.1749178,54.7430061 18.2359204,54.5527873 C18.4192925,53.9809338 18.6715329,53.6674365 18.9436357,53.6304239 Z M19.2023329,53.6785613 C19.4831178,53.8184531 19.7710631,54.2324662 20.0144638,54.883732 C20.0954341,55.1003686 20.1670745,55.342086 20.233848,55.5998065 L19.2879863,55.4238042 L19.2023329,53.6785613 Z M18.3505648,53.6243747 C18.2110187,53.8108879 18.0897345,54.0550742 17.9938624,54.3540301 C17.9187548,54.5882486 17.8563088,54.8571737 17.8085617,55.1485184 L16.7737728,54.9559687 C17.1143536,54.229225 17.6728532,53.7450048 18.3505648,53.6243747 Z M19.8057366,53.8951476 C20.5078901,54.2725379 21.1246519,54.9754463 21.5435026,55.8435022 L20.5087138,55.6509525 C20.4312256,55.3363046 20.3409885,55.0389687 20.2412945,54.7722238 C20.1140402,54.4317494 19.9663311,54.1375099 19.8057366,53.8951476 Z M17.76129,55.491073 C17.7052348,55.9659458 17.6866613,56.4964288 17.7062114,57.0619117 L16.4127255,56.8212247 C16.4033967,56.2509153 16.4850514,55.7319946 16.6416161,55.2827283 L17.76129,55.491073 Z M18.0321136,55.5414669 L19.0466917,55.7302558 L19.1250039,57.3259153 L17.9649086,57.1100491 C17.945781,56.5390759 17.9720004,56.0083467 18.0321136,55.5414669 Z M19.3053889,55.7783932 L20.3199671,55.9671821 C20.427438,56.4652453 20.506767,57.0156146 20.5437964,57.5899189 L19.3837011,57.3740527 L19.3053889,55.7783932 Z M20.5907907,56.0175759 L21.7104646,56.2259206 C21.9144202,56.7422712 22.0489848,57.3014252 22.0959797,57.8787433 L20.8024936,57.6380563 C20.7663351,57.0694829 20.6949207,56.5222554 20.5907907,56.0175759 Z M16.4301279,57.1758137 L17.723614,57.4165007 C17.7596978,57.9856399 17.8311179,58.5329827 17.9353164,59.0369704 L16.8116004,58.8278735 C16.6086444,58.3120445 16.4765361,57.7521442 16.4301279,57.1758137 Z M17.9823112,57.4646381 L19.1424065,57.6805043 L19.2207182,59.2761531 L18.20614,59.0873642 C18.0985894,58.5900257 18.0193703,58.0395452 17.9823112,57.4646381 Z M19.4011037,57.7286417 L20.561199,57.9445079 C20.5804726,58.5161055 20.5542597,59.0469677 20.4939935,59.5130794 L19.4794154,59.3242905 L19.4011037,57.7286417 Z M20.8198962,57.9926453 L22.1133823,58.2333323 C22.1232107,58.8028562 22.0441316,59.3234596 21.8885332,59.7725701 L20.7648171,59.5634733 C20.8210108,59.0893307 20.8394752,58.5587133 20.8198962,57.9926453 Z M16.9826045,59.2110442 L18.0173933,59.4035938 C18.0948432,59.7174617 18.1848467,60.0100371 18.2845407,60.276782 C18.4129172,60.6202761 18.5623659,60.9211021 18.7246842,61.1656824 C18.0197567,60.7881801 17.4022735,60.0827131 16.9826045,59.2110442 Z M18.2922591,59.4547398 L19.2381208,59.6307422 L19.3240462,61.3815255 C19.0431952,61.2405497 18.7547868,60.8165776 18.5113714,60.1652739 C18.430401,59.9486372 18.3590004,59.7118043 18.2922591,59.4547398 Z M19.496818,59.6788796 L20.4426797,59.854882 C20.4001732,60.0916181 20.3509174,60.3059997 20.2899148,60.4962185 C20.1065315,61.0681052 19.854806,61.3915712 19.5827434,61.4296629 L19.496818,59.6788796 Z M20.7175455,59.906028 L21.7523343,60.0985776 C21.4112782,60.8286937 20.8522972,61.3152486 20.1717717,61.434951 C20.3128535,61.2468263 20.4352568,60.9965855 20.5319728,60.6949758 C20.6070804,60.4607573 20.66976,60.1965925 20.7175455,59.906028 Z M17.0502377,64.6695667 C16.978801,64.6562741 16.9247848,64.7248728 16.9295905,64.8227926 C16.9343962,64.9207123 16.9962036,65.0108631 17.0676403,65.0241558 L22.2415845,65.9869039 C22.3130212,66.0001966 22.3670376,65.9315978 22.3622318,65.8336781 C22.3574261,65.7357583 22.2956186,65.6456075 22.2241819,65.6323149 L17.0502377,64.6695667 Z M22.2241819,65.6323149 C22.2956186,65.6456075 22.3574261,65.7357583 22.3622318,65.8336781 C22.3670376,65.9315978 22.3130212,66.0001966 22.2415845,65.9869039 L17.0676403,65.0241558 C16.9962036,65.0108631 16.9343962,64.9207123 16.9295905,64.8227926 C16.9247848,64.7248728 16.978801,64.6562741 17.0502377,64.6695667 L22.2241819,65.6323149 Z M22.477024,52.5037002 C22.8330819,52.5699541 23.1378897,52.9118015 23.1551884,53.2642739 L23.6453621,63.2518699 C23.6626609,63.6043423 23.3860984,63.8380105 23.0300405,63.7717566 L16.0452158,62.4720466 C15.6891579,62.4057927 15.3843501,62.0639452 15.3670514,61.7114729 L14.8768776,51.7238768 C14.8595789,51.3714045 15.1361414,51.1377363 15.4921993,51.2039902 L22.477024,52.5037002 Z" id="Shape-Copy" fill="#E5E3C3" fill-rule="nonzero"></path>
            </g>
        </g>
    </g>
</svg>